name rise30.9205peak61.366fall85.3838.mot
datacolumns 19
datarows 29
range 16.65327100000000 16.69994100000000
endheader
time	ground_force1_vx	ground_force1_vy	ground_force1_vz	ground_force1_px	ground_force1_py	ground_force1_pz	ground_force2_vx	ground_force2_vy	ground_force2_vz	ground_force2_px	ground_force2_py	ground_force2_pz	ground_torque1_x	ground_torque1_y	ground_torque1_z	ground_torque2_x	ground_torque2_y	ground_torque2_z	
16.65327100000000	-44.82149900000000	791.95176400000003	56.87466000000000	0.13649800000000	0.00000000000000	0.10300300000000	-13.09945800000000	37.19165100000000	7.52759100000000	0.37951400000000	0.00000000000000	-0.07671600000000	0.00000000000000	22.72838800000000	0.00000000000000	0.00000000000000	3.93287700000000	0.00000000000000	
16.65493400000000	-44.86540900000000	788.73652200000004	56.53875800000000	0.13592200000000	0.00000000000000	0.10290200000000	-14.50137700000000	43.18150400000000	8.45381600000000	0.38099700000000	0.00000000000000	-0.07752700000000	0.00000000000000	22.56760800000000	0.00000000000000	0.00000000000000	4.45632600000000	0.00000000000000	
16.65660100000000	-44.93084100000000	785.43499899999995	56.18342500000000	0.13534700000000	0.00000000000000	0.10279600000000	-15.69678500000000	49.14644700000000	9.29202700000000	0.38259100000000	0.00000000000000	-0.07827100000000	0.00000000000000	22.40837200000000	0.00000000000000	0.00000000000000	4.94665800000000	0.00000000000000	
16.65827300000000	-45.01832500000000	782.04885500000000	55.80891400000000	0.13477500000000	0.00000000000000	0.10268600000000	-16.65233100000000	55.00437800000000	10.02250000000000	0.38427900000000	0.00000000000000	-0.07895500000000	0.00000000000000	22.25090100000000	0.00000000000000	0.00000000000000	5.39378700000000	0.00000000000000	
16.65994300000000	-45.12832900000000	778.57968700000004	55.41550900000000	0.13420500000000	0.00000000000000	0.10257100000000	-17.34828500000000	60.69699600000000	10.63232100000000	0.38604800000000	0.00000000000000	-0.07958800000000	0.00000000000000	22.09540600000000	0.00000000000000	0.00000000000000	5.79064500000000	0.00000000000000	
16.66161700000000	-45.26125400000000	775.02902300000005	55.00351600000000	0.13363900000000	0.00000000000000	0.10245200000000	-17.77838500000000	66.19124900000000	11.11545000000000	0.38788200000000	0.00000000000000	-0.08017400000000	0.00000000000000	21.94208000000000	0.00000000000000	0.00000000000000	6.13329000000000	0.00000000000000	
16.66327400000000	-45.41743700000000	771.39831000000004	54.57326900000000	0.13307700000000	0.00000000000000	0.10232800000000	-17.94860200000000	71.47845000000000	11.47221800000000	0.38977000000000	0.00000000000000	-0.08072000000000	0.00000000000000	21.79110100000000	0.00000000000000	0.00000000000000	6.42073900000000	0.00000000000000	
16.66493600000000	-45.59714700000000	767.68890799999997	54.12512200000000	0.13252100000000	0.00000000000000	0.10220000000000	-17.87510700000000	76.57154900000000	11.70837800000000	0.39169900000000	0.00000000000000	-0.08122800000000	0.00000000000000	21.64263100000000	0.00000000000000	0.00000000000000	6.65459900000000	0.00000000000000	
16.66661800000000	-45.80058100000000	763.90208199999995	53.65945300000000	0.13197000000000	0.00000000000000	0.10206600000000	-17.58174000000000	81.50107199999999	11.83388300000000	0.39365900000000	0.00000000000000	-0.08170400000000	0.00000000000000	21.49681400000000	0.00000000000000	0.00000000000000	6.83854400000000	0.00000000000000	
16.66827300000000	-46.02786500000000	760.03899699999999	53.17666100000000	0.13142600000000	0.00000000000000	0.10192800000000	-17.09729300000000	86.31032500000001	11.86152400000000	0.39564100000000	0.00000000000000	-0.08215000000000	0.00000000000000	21.35377400000000	0.00000000000000	0.00000000000000	6.97771200000000	0.00000000000000	
16.66994000000000	-46.27905100000000	756.10070700000006	52.67716100000000	0.13088900000000	0.00000000000000	0.10178600000000	-16.45283400000000	91.05036500000000	11.80557800000000	0.39763400000000	0.00000000000000	-0.08257100000000	0.00000000000000	21.21361800000000	0.00000000000000	0.00000000000000	7.07808200000000	0.00000000000000	
16.67161300000000	-46.55411300000000	752.08815600000003	52.16138700000000	0.13035900000000	0.00000000000000	0.10163800000000	-15.67931500000000	95.77519700000001	11.68055800000000	0.39963200000000	0.00000000000000	-0.08296700000000	0.00000000000000	21.07643200000000	0.00000000000000	0.00000000000000	7.14589300000000	0.00000000000000	
16.67327500000000	-46.85294700000000	748.00216799999998	51.62978900000000	0.12983800000000	0.00000000000000	0.10148600000000	-14.80557900000000	100.53753600000000	11.50016700000000	0.40162500000000	0.00000000000000	-0.08334200000000	0.00000000000000	20.94228400000000	0.00000000000000	0.00000000000000	7.18713100000000	0.00000000000000	
16.67495100000000	-47.17537000000000	743.84344299999998	51.08283000000000	0.12932500000000	0.00000000000000	0.10132800000000	-13.85687100000000	105.38537800000000	11.27649000000000	0.40360600000000	0.00000000000000	-0.08369800000000	0.00000000000000	20.81121800000000	0.00000000000000	0.00000000000000	7.20711800000000	0.00000000000000	
16.67660400000000	-47.52111700000000	739.61255800000004	50.52098600000000	0.12882100000000	0.00000000000000	0.10116600000000	-12.85386900000000	110.35948900000000	11.01944400000000	0.40556900000000	0.00000000000000	-0.08403700000000	0.00000000000000	20.68326000000000	0.00000000000000	0.00000000000000	7.21022900000000	0.00000000000000	
16.67827000000000	-47.88984000000000	735.30995800000005	49.94474400000000	0.12832600000000	0.00000000000000	0.10100000000000	-11.81222500000000	115.49185000000000	10.73649000000000	0.40750700000000	0.00000000000000	-0.08436000000000	0.00000000000000	20.55841300000000	0.00000000000000	0.00000000000000	7.19971400000000	0.00000000000000	
16.67993900000000	-48.28110400000000	730.93595900000003	49.35460000000000	0.12784100000000	0.00000000000000	0.10082800000000	-10.74255500000000	120.80500200000000	10.43258300000000	0.40941400000000	0.00000000000000	-0.08466900000000	0.00000000000000	20.43666000000000	0.00000000000000	0.00000000000000	7.17764600000000	0.00000000000000	
16.68160600000000	-48.69438900000000	726.49074499999995	48.75105700000000	0.12736500000000	0.00000000000000	0.10065200000000	-9.65079800000000	126.31217700000001	10.11030900000000	0.41128600000000	0.00000000000000	-0.08496500000000	0.00000000000000	20.31796300000000	0.00000000000000	0.00000000000000	7.14496100000000	0.00000000000000	
16.68326900000000	-49.12908900000000	721.97436400000004	48.13462700000000	0.12689900000000	0.00000000000000	0.10047200000000	-8.53885600000000	132.01805800000000	9.77018000000000	0.41311700000000	0.00000000000000	-0.08525000000000	0.00000000000000	20.20226100000000	0.00000000000000	0.00000000000000	7.10157900000000	0.00000000000000	
16.68493600000000	-49.58450600000000	717.38673600000004	47.50582400000000	0.12644200000000	0.00000000000000	0.10028700000000	-7.40540400000000	137.91999999999999	9.41102500000000	0.41490200000000	0.00000000000000	-0.08552400000000	0.00000000000000	20.08947400000000	0.00000000000000	0.00000000000000	7.04657400000000	0.00000000000000	
16.68660500000000	-50.05985500000000	712.72764700000005	46.86516800000000	0.12599600000000	0.00000000000000	0.10009800000000	-6.24679100000000	144.00952899999999	9.03043200000000	0.41663700000000	0.00000000000000	-0.08578800000000	0.00000000000000	19.97950100000000	0.00000000000000	0.00000000000000	6.97838900000000	0.00000000000000	
16.68827500000000	-50.55426000000000	707.99675200000001	46.21318100000000	0.12555800000000	0.00000000000000	0.09990400000000	-5.05793400000000	150.27395899999999	8.62520800000000	0.41831900000000	0.00000000000000	-0.08604400000000	0.00000000000000	19.87222000000000	0.00000000000000	0.00000000000000	6.89505700000000	0.00000000000000	
16.68993500000000	-51.06675400000000	703.19358099999999	45.55038400000000	0.12513000000000	0.00000000000000	0.09970700000000	-3.83316000000000	156.69798499999999	8.19180500000000	0.41994300000000	0.00000000000000	-0.08629200000000	0.00000000000000	19.76749000000000	0.00000000000000	0.00000000000000	6.79441000000000	0.00000000000000	
16.69160600000000	-51.59628000000000	698.31753800000001	44.87730000000000	0.12471000000000	0.00000000000000	0.09950500000000	-2.56691500000000	163.26514000000000	7.72669800000000	0.42150800000000	0.00000000000000	-0.08653200000000	0.00000000000000	19.66515100000000	0.00000000000000	0.00000000000000	6.67428200000000	0.00000000000000	
16.69327300000000	-52.14169000000000	693.36790800000006	44.19445200000000	0.12429900000000	0.00000000000000	0.09930000000000	-1.25434700000000	169.95902699999999	7.22669400000000	0.42300900000000	0.00000000000000	-0.08676600000000	0.00000000000000	19.56502300000000	0.00000000000000	0.00000000000000	6.53266400000000	0.00000000000000	
16.69493500000000	-52.70174500000000	688.34385999999995	43.50236000000000	0.12389700000000	0.00000000000000	0.09909100000000	0.10828900000000	176.76429300000001	6.68915600000000	0.42444400000000	0.00000000000000	-0.08699400000000	0.00000000000000	19.46691100000000	0.00000000000000	0.00000000000000	6.36783500000000	0.00000000000000	
16.69660400000000	-53.27511800000000	683.24445300000002	42.80154100000000	0.12350200000000	0.00000000000000	0.09887900000000	1.52337400000000	183.66731200000001	6.11215500000000	0.42581100000000	0.00000000000000	-0.08721600000000	0.00000000000000	19.37059900000000	0.00000000000000	0.00000000000000	6.17844500000000	0.00000000000000	
16.69827400000000	-53.86039300000000	678.06864399999995	42.09251000000000	0.12311300000000	0.00000000000000	0.09866400000000	2.99182100000000	190.65658400000001	5.49453900000000	0.42710900000000	0.00000000000000	-0.08743300000000	0.00000000000000	19.27585700000000	0.00000000000000	0.00000000000000	5.96356600000000	0.00000000000000	
16.69994100000000	-54.45606700000000	672.81529200000000	41.37577800000000	0.12273200000000	0.00000000000000	0.09844500000000	4.51309600000000	197.72288800000001	4.83593900000000	0.42833500000000	0.00000000000000	-0.08764600000000	0.00000000000000	19.18244200000000	0.00000000000000	0.00000000000000	5.72270000000000	0.00000000000000	
